<svg width="20" height="20" viewBox="0 0 20 20" fill="none" xmlns="http://www.w3.org/2000/svg">
<path d="M9.99953 17.5C9.01056 17.501 8.0314 17.3071 7.12045 16.9298C6.2095 16.5524 5.38536 15.9994 4.69691 15.3036C3.28075 13.8882 2.49138 11.9825 2.50007 10.0002C2.49141 8.01781 3.28076 6.11201 4.69691 4.69642C5.38536 4.00059 6.2095 3.44756 7.12045 3.07023C8.0314 2.69291 9.01056 2.49899 9.99953 2.5C10.9887 2.49898 11.968 2.69293 12.8791 3.07034C13.7902 3.44775 14.6145 4.0009 15.3031 4.69688C16.7193 6.11245 17.5086 8.01827 17.4999 10.0007C17.5086 11.983 16.7192 13.8887 15.3031 15.3041C14.6144 15.9998 13.7902 16.5528 12.8791 16.9301C11.968 17.3073 10.9886 17.5011 9.99953 17.5ZM10.0054 11.2408L12.7146 13.5891C12.8647 13.7217 13.0593 13.7958 13.2613 13.7975C13.2888 13.7975 13.3162 13.7961 13.3435 13.7933C13.4567 13.7807 13.5659 13.7451 13.6642 13.6888C13.7626 13.6324 13.848 13.5565 13.9146 13.466C14.0558 13.2727 14.1197 13.0353 14.0944 12.7989C14.069 12.5625 13.9561 12.3433 13.777 12.183L11.3281 10.0611L13.7049 7.93916C13.8788 7.77405 13.9848 7.55203 14.0025 7.31536C14.0203 7.07869 13.9484 6.84389 13.8009 6.65564C13.7234 6.55427 13.6233 6.47176 13.508 6.41452C13.3927 6.35728 13.2653 6.32684 13.1361 6.32557C12.9359 6.32644 12.7432 6.4008 12.5962 6.53398L9.96734 8.88223L7.25765 6.53398C7.10753 6.40145 6.91301 6.32732 6.71097 6.32557C6.58322 6.32621 6.45756 6.35644 6.34401 6.41381C6.23046 6.47117 6.13227 6.55404 6.05763 6.65564C5.91677 6.84909 5.85303 7.08637 5.87838 7.32272C5.90372 7.55907 6.01647 7.77817 6.1953 7.93868L8.64374 10.0606L6.26742 12.1825C6.09334 12.3474 5.98728 12.5694 5.96953 12.806C5.95178 13.0427 6.02349 13.2774 6.1711 13.4655C6.24872 13.5669 6.34914 13.6494 6.46453 13.7067C6.57992 13.7639 6.70733 13.7943 6.83666 13.7956C7.03672 13.7948 7.229 13.7204 7.37582 13.5872L10.0049 11.239L10.0054 11.2408Z" fill="#737373"/>
</svg>
