<svg width="24" height="24" viewBox="0 0 24 24" fill="none" xmlns="http://www.w3.org/2000/svg">
<path d="M12.0781 21C11.5421 21 9.93038 19.0848 8.5595 16.8171C6.81871 13.9387 5.81999 11.1841 5.81999 9.26065C5.80253 8.27528 5.98592 7.29668 6.35898 6.3845C6.67553 5.63669 7.16135 4.97257 7.77818 4.44443C8.99595 3.47059 10.5194 2.95975 12.0781 3.00258C13.6378 2.95896 15.1624 3.46985 16.3809 4.44443C16.9981 4.97249 17.4841 5.63662 17.8009 6.3845C18.174 7.29668 18.3574 8.27528 18.3399 9.26065C18.3361 13.7621 13.1953 21 12.0781 21ZM12.1905 6.03574C11.5306 6.03574 10.8856 6.23141 10.3369 6.59801C9.78819 6.96461 9.36053 7.48568 9.10796 8.09532C8.8554 8.70497 8.78928 9.37582 8.91796 10.023C9.04665 10.6703 9.36435 11.2648 9.83091 11.7315C10.2975 12.1981 10.8919 12.516 11.5391 12.6448C12.1863 12.7736 12.8572 12.7077 13.4669 12.4552C14.0766 12.2028 14.5978 11.7753 14.9645 11.2267C15.3312 10.678 15.527 10.033 15.5272 9.37313C15.5264 8.48837 15.1746 7.64007 14.5491 7.01439C13.9235 6.3887 13.0753 6.03674 12.1905 6.03574Z" fill="white"/>
</svg>
