<svg width="24" height="24" viewBox="0 0 24 24" fill="none" xmlns="http://www.w3.org/2000/svg">
<path fill-rule="evenodd" clip-rule="evenodd" d="M6.4493 17.2136C7.72556 18.0663 9.22603 18.5215 10.761 18.5214C11.7805 18.5242 12.7904 18.3248 13.7323 17.9347C14.3329 17.686 14.8981 17.3629 15.4153 16.9741C15.4561 17.0331 15.5028 17.0892 15.5553 17.1417L18.5588 20.1452C19.0309 20.6173 19.7963 20.6173 20.2684 20.1452C20.7405 19.6731 20.741 18.9072 20.2689 18.4351L17.2654 15.4317C17.2057 15.372 17.1414 15.3199 17.0736 15.2753C18.0092 13.967 18.5216 12.3904 18.5216 10.7609C18.5216 8.70259 17.7039 6.72857 16.2485 5.27312C14.793 3.81767 12.819 3 10.7607 3C8.70234 3 6.72832 3.81767 5.27286 5.27312C4.18755 6.35852 3.44847 7.74138 3.14907 9.24683C2.84968 10.7523 3.00342 12.3127 3.59085 13.7308C4.17828 15.1488 5.17303 16.3609 6.4493 17.2136ZM7.84046 6.38982C8.7049 5.8121 9.72124 5.50367 10.761 5.50356C12.1548 5.50514 13.4911 6.05949 14.4767 7.04502C15.4624 8.03055 16.0169 9.36679 16.0186 10.7606C16.0186 11.8003 15.7103 12.8167 15.1327 13.6812C14.5551 14.5457 13.7341 15.2195 12.7735 15.6175C11.8129 16.0154 10.7559 16.1195 9.73618 15.9167C8.71642 15.7139 7.7797 15.2133 7.04446 14.4781C6.30923 13.743 5.80849 12.8063 5.60558 11.7866C5.40267 10.7669 5.50669 9.70985 5.90449 8.74924C6.3023 7.78863 6.97601 6.96755 7.84046 6.38982Z" fill="#A09E9E"/>
</svg>
